<svg xmlns="http://www.w3.org/2000/svg" width="256" height="256" viewBox="0 0 256 256">
  <defs>
    <clipPath id="flacso-favicon-badge">
      <path d="M14 36C58 14 95 8 128 8s70 6 114 28v184c-44 22-81 28-114 28s-70-6-114-28V36z" />
    </clipPath>
  </defs>

  <path d="M14 36C58 14 95 8 128 8s70 6 114 28v184c-44 22-81 28-114 28s-70-6-114-28V36z" fill="#1D3F78" />

  <g clip-path="url(#flacso-favicon-badge)" fill="#FFFFFF">
    <path d="M86 62l10 2 6 8 8 4 5-2 9 5 6 1 6 5-3 5-11 1-3 4-8-2-9 2-5-4-7 1-6-4-5-8-5-4z" />
    <path d="M122 102l8 6 8 2 4 7-3 7 3 8-5 10-6 7-2 11-8 11-2 14-7 15-5-2 1-10 5-11 1-10 5-8-1-9 4-7-2-8 3-8z" />
  </g>
</svg>
